<?xml version="1.0" encoding="utf-8"?>
<!-- Generator: Adobe Illustrator 25.0.0, SVG Export Plug-In . SVG Version: 6.00 Build 0)  -->
<svg version="1.1" id="Layer_1" xmlns="http://www.w3.org/2000/svg" xmlns:xlink="http://www.w3.org/1999/xlink" x="0px" y="0px"
	 viewBox="0 0 1920 1080" style="enable-background:new 0 0 1920 1080;" xml:space="preserve">
<style type="text/css">
	.st0{fill:url(#SVGID_1_);}
</style>
<linearGradient id="SVGID_1_" gradientUnits="userSpaceOnUse" x1="9.094947e-13" y1="542.071" x2="1920" y2="542.071">
	<stop  offset="0" style="stop-color:#C80000"/>
	<stop  offset="1" style="stop-color:#E61446"/>
</linearGradient>
<path class="st0" d="M1920,14.5c-16.57,16.57-43.43,16.57-60,0s-43.43-16.57-60,0s-43.43,16.57-60,0s-43.43-16.57-60,0
	s-43.43,16.57-60,0s-43.43-16.57-60,0s-43.43,16.57-60,0s-43.43-16.57-60,0s-43.43,16.57-60,0s-43.43-16.57-60,0s-43.43,16.57-60,0
	s-43.43-16.57-60,0s-43.43,16.57-60,0s-43.43-16.57-60,0s-43.43,16.57-60,0c-16.57-16.57-43.43-16.57-60,0s-43.43,16.57-60,0
	s-43.43-16.57-60,0s-43.43,16.57-60,0s-43.43-16.57-60,0s-43.43,16.57-60,0s-43.43-16.57-60,0s-43.43,16.57-60,0s-43.43-16.57-60,0
	s-43.43,16.57-60,0s-43.43-16.57-60,0s-43.43,16.57-60,0s-43.43-16.57-60,0s-43.43,16.57-60,0s-43.43-16.57-60,0s-43.43,16.57-60,0
	s-43.43-16.57-60,0v1067.57h1920V14.5z"/>
</svg>
